<svg xmlns="http://www.w3.org/2000/svg" xmlns:xlink="http://www.w3.org/1999/xlink" width="2000" zoomAndPan="magnify" viewBox="0 0 1500 1499.999933" height="2000" preserveAspectRatio="xMidYMid meet" version="1.0"><defs><clipPath id="83e3afb307"><path d="M 42.136719 42.136719 L 1458 42.136719 L 1458 1458 L 42.136719 1458 Z M 42.136719 42.136719 " clip-rule="nonzero"/></clipPath></defs><g clip-path="url(#83e3afb307)"><path fill="#6366f1" d="M 1457.867188 160.113281 L 1457.867188 1339.886719 C 1457.867188 1405.023438 1405.027344 1457.855469 1339.886719 1457.855469 L 1213.65625 1457.855469 L 882.925781 924.605469 C 994.273438 880.066406 1071.84375 769.664062 1067.160156 641.460938 C 1061.332031 481.972656 922.050781 359.496094 762.46875 359.496094 L 286.355469 359.496094 L 286.355469 1164.878906 L 481.421875 1164.878906 L 481.421875 554.574219 L 774.386719 554.574219 C 801.105469 554.574219 825.507812 565.5625 843.597656 583.257812 C 862.304688 602.375 873.640625 629.308594 871.675781 659.078125 C 868.296875 711.183594 821.515625 749.996094 769.289062 749.996094 L 530.183594 749.996094 L 969.84375 1457.855469 L 160.128906 1457.855469 C 94.960938 1457.855469 42.136719 1405.023438 42.136719 1339.886719 L 42.144531 160.113281 C 42.144531 94.96875 94.953125 42.136719 160.117188 42.136719 L 1339.886719 42.136719 C 1405.03125 42.136719 1457.863281 94.96875 1457.867188 160.113281 " fill-opacity="1" fill-rule="evenodd"/></g></svg>